<svg width="55" height="24" viewBox="0 0 55 24" fill="none" xmlns="http://www.w3.org/2000/svg">
    <g filter="url(#filter0_f_23_56)">
        <path
            d="M12.9333 18L12.2453 15.44H8.58125L7.89325 18H5.70125L9.14125 6.944H11.7493L15.1733 18H12.9333ZM8.99725 13.84H11.8133L10.4053 8.56L8.99725 13.84ZM20.7254 9.296C21.7067 9.296 22.4747 9.69067 23.0294 10.48C23.584 11.2587 23.8614 12.352 23.8614 13.76C23.8614 14.6347 23.7227 15.4133 23.4454 16.096C23.1787 16.768 22.7947 17.296 22.2934 17.68C21.792 18.0533 21.2 18.24 20.5174 18.24C20.0587 18.24 19.6374 18.144 19.2534 17.952C18.88 17.76 18.5547 17.488 18.2774 17.136L18.1494 18H16.3414V6.144L18.3894 5.92V10.496C18.6667 10.112 19.0027 9.81867 19.3974 9.616C19.8027 9.40267 20.2454 9.296 20.7254 9.296ZM19.9574 16.704C20.512 16.704 20.944 16.4693 21.2534 16C21.5627 15.52 21.7174 14.7733 21.7174 13.76C21.7174 12.6933 21.5734 11.9413 21.2854 11.504C20.9974 11.056 20.592 10.832 20.0694 10.832C19.4187 10.832 18.8587 11.216 18.3894 11.984V15.728C18.5707 16.0373 18.7947 16.2773 19.0614 16.448C19.3387 16.6187 19.6374 16.704 19.9574 16.704ZM29.3286 9.296C30.5766 9.296 31.5473 9.696 32.2406 10.496C32.9446 11.2853 33.2966 12.3733 33.2966 13.76C33.2966 14.6453 33.1366 15.4293 32.8166 16.112C32.4966 16.784 32.038 17.3067 31.4406 17.68C30.8433 18.0533 30.134 18.24 29.3126 18.24C28.0646 18.24 27.0886 17.8453 26.3846 17.056C25.6806 16.256 25.3286 15.1573 25.3286 13.76C25.3286 12.8747 25.4886 12.096 25.8086 11.424C26.1286 10.752 26.5873 10.2293 27.1846 9.856C27.7926 9.48267 28.5073 9.296 29.3286 9.296ZM29.3286 10.848C28.102 10.848 27.4886 11.8187 27.4886 13.76C27.4886 14.7627 27.638 15.504 27.9366 15.984C28.246 16.4533 28.7046 16.688 29.3126 16.688C29.9206 16.688 30.374 16.448 30.6726 15.968C30.982 15.488 31.1366 14.752 31.1366 13.76C31.1366 12.768 30.982 12.0373 30.6726 11.568C30.374 11.088 29.926 10.848 29.3286 10.848ZM41.9844 18H40.2084L40.0964 16.816C39.787 17.296 39.419 17.6533 38.9924 17.888C38.5764 18.1227 38.0804 18.24 37.5044 18.24C36.747 18.24 36.1604 18.0107 35.7444 17.552C35.339 17.0827 35.1364 16.4373 35.1364 15.616V9.536H37.1844V15.36C37.1844 15.84 37.2644 16.1813 37.4244 16.384C37.595 16.5867 37.8617 16.688 38.2244 16.688C38.875 16.688 39.4457 16.288 39.9364 15.488V9.536H41.9844V18ZM49.2988 17.6C49.0001 17.8133 48.6641 17.9733 48.2908 18.08C47.9281 18.1867 47.5548 18.24 47.1708 18.24C46.3388 18.2293 45.7041 17.9947 45.2668 17.536C44.8401 17.0667 44.6268 16.3787 44.6268 15.472V11.008H43.2988V9.536H44.6268V7.664L46.6748 7.424V9.536H48.6428L48.4348 11.008H46.6748V15.424C46.6748 15.84 46.7441 16.1387 46.8828 16.32C47.0321 16.5013 47.2614 16.592 47.5708 16.592C47.8801 16.592 48.2161 16.4907 48.5788 16.288L49.2988 17.6Z"
            fill="#A238FF" />
    </g>
    <defs>
        <filter id="filter0_f_23_56" x="0.701172" y="0.919998" width="53.5977" height="22.32"
            filterUnits="userSpaceOnUse" color-interpolation-filters="sRGB">
            <feFlood flood-opacity="0" result="BackgroundImageFix" />
            <feBlend mode="normal" in="SourceGraphic" in2="BackgroundImageFix" result="shape" />
            <feGaussianBlur stdDeviation="2.5" result="effect1_foregroundBlur_23_56" />
        </filter>
    </defs>
</svg>