<svg width="66" height="23" viewBox="0 0 66 23" fill="none" xmlns="http://www.w3.org/2000/svg">
    <g filter="url(#filter0_f_16_2)">
        <path
            d="M10.1997 5.704C10.8717 5.704 11.4584 5.8 11.9597 5.992C12.461 6.184 12.9517 6.47733 13.4317 6.872L12.3597 8.12C11.709 7.59733 11.0264 7.336 10.3117 7.336C9.49035 7.336 8.82902 7.66667 8.32769 8.328C7.83702 8.98933 7.59169 10.0293 7.59169 11.448C7.59169 12.8347 7.83702 13.864 8.32769 14.536C8.81835 15.208 9.47969 15.544 10.3117 15.544C10.749 15.544 11.1384 15.4693 11.4797 15.32C11.821 15.16 12.1837 14.936 12.5677 14.648L13.5597 15.896C13.1864 16.28 12.7117 16.6 12.1357 16.856C11.5704 17.112 10.9357 17.24 10.2317 17.24C9.27169 17.24 8.42369 17.016 7.68769 16.568C6.95169 16.12 6.38102 15.464 5.97569 14.6C5.57035 13.7253 5.36769 12.6747 5.36769 11.448C5.36769 10.2427 5.57569 9.208 5.99169 8.344C6.41835 7.48 6.99435 6.824 7.71969 6.376C8.45569 5.928 9.28235 5.704 10.1997 5.704ZM18.1489 8.296C19.3969 8.296 20.3676 8.696 21.0609 9.496C21.7649 10.2853 22.1169 11.3733 22.1169 12.76C22.1169 13.6453 21.9569 14.4293 21.6369 15.112C21.3169 15.784 20.8583 16.3067 20.2609 16.68C19.6636 17.0533 18.9543 17.24 18.1329 17.24C16.8849 17.24 15.9089 16.8453 15.2049 16.056C14.5009 15.256 14.1489 14.1573 14.1489 12.76C14.1489 11.8747 14.3089 11.096 14.6289 10.424C14.9489 9.752 15.4076 9.22933 16.0049 8.856C16.6129 8.48267 17.3276 8.296 18.1489 8.296ZM18.1489 9.848C16.9223 9.848 16.3089 10.8187 16.3089 12.76C16.3089 13.7627 16.4583 14.504 16.7569 14.984C17.0663 15.4533 17.5249 15.688 18.1329 15.688C18.7409 15.688 19.1943 15.448 19.4929 14.968C19.8023 14.488 19.9569 13.752 19.9569 12.76C19.9569 11.768 19.8023 11.0373 19.4929 10.568C19.1943 10.088 18.7463 9.848 18.1489 9.848ZM28.5487 8.296C29.306 8.296 29.8927 8.52533 30.3087 8.984C30.7354 9.432 30.9487 10.0613 30.9487 10.872V17H28.9007V11.192C28.9007 10.6907 28.81 10.3387 28.6287 10.136C28.458 9.93333 28.202 9.832 27.8607 9.832C27.5087 9.832 27.1887 9.944 26.9007 10.168C26.6234 10.3813 26.3514 10.696 26.0847 11.112V17H24.0367V8.536H25.8127L25.9727 9.64C26.666 8.744 27.5247 8.296 28.5487 8.296ZM38.1816 16.6C37.8829 16.8133 37.5469 16.9733 37.1736 17.08C36.8109 17.1867 36.4376 17.24 36.0536 17.24C35.2216 17.2293 34.5869 16.9947 34.1496 16.536C33.7229 16.0667 33.5096 15.3787 33.5096 14.472V10.008H32.1816V8.536H33.5096V6.664L35.5576 6.424V8.536H37.5256L37.3176 10.008H35.5576V14.424C35.5576 14.84 35.6269 15.1387 35.7656 15.32C35.9149 15.5013 36.1442 15.592 36.4536 15.592C36.7629 15.592 37.0989 15.4907 37.4616 15.288L38.1816 16.6ZM45.4333 14.76C45.4333 15.0907 45.4813 15.336 45.5773 15.496C45.684 15.6453 45.8493 15.7627 46.0733 15.848L45.6413 17.208C45.1613 17.1653 44.7666 17.048 44.4573 16.856C44.1586 16.664 43.9293 16.3707 43.7693 15.976C43.4813 16.4027 43.1186 16.7227 42.6813 16.936C42.2546 17.1387 41.7746 17.24 41.2413 17.24C40.3986 17.24 39.732 17 39.2413 16.52C38.7506 16.04 38.5053 15.4107 38.5053 14.632C38.5053 13.7147 38.836 13.016 39.4973 12.536C40.1693 12.0453 41.124 11.8 42.3613 11.8H43.4173V11.32C43.4173 10.776 43.2893 10.3973 43.0333 10.184C42.788 9.96 42.388 9.848 41.8333 9.848C41.2146 9.848 40.468 9.99733 39.5933 10.296L39.1133 8.904C40.1693 8.49867 41.1933 8.296 42.1853 8.296C44.3506 8.296 45.4333 9.26667 45.4333 11.208V14.76ZM41.7853 15.752C42.4786 15.752 43.0226 15.4053 43.4173 14.712V13H42.5693C41.2466 13 40.5853 13.4907 40.5853 14.472C40.5853 14.8773 40.6866 15.192 40.8893 15.416C41.092 15.64 41.3906 15.752 41.7853 15.752ZM51.3197 8.296C51.8744 8.296 52.3704 8.376 52.8077 8.536C53.2557 8.696 53.677 8.94667 54.0717 9.288L53.1597 10.52C52.8717 10.3067 52.5944 10.152 52.3277 10.056C52.061 9.96 51.7677 9.912 51.4477 9.912C50.1784 9.912 49.5437 10.8773 49.5437 12.808C49.5437 13.7893 49.709 14.4987 50.0397 14.936C50.3704 15.3627 50.8397 15.576 51.4477 15.576C51.7464 15.576 52.0184 15.528 52.2637 15.432C52.5197 15.336 52.8184 15.1813 53.1597 14.968L54.0717 16.264C53.2717 16.9147 52.3597 17.24 51.3357 17.24C50.525 17.24 49.821 17.064 49.2237 16.712C48.6264 16.3493 48.1677 15.8373 47.8477 15.176C47.5277 14.5147 47.3677 13.736 47.3677 12.84C47.3677 11.944 47.5277 11.1547 47.8477 10.472C48.1677 9.77867 48.6264 9.24533 49.2237 8.872C49.821 8.488 50.5197 8.296 51.3197 8.296ZM60.4003 16.6C60.1016 16.8133 59.7656 16.9733 59.3923 17.08C59.0296 17.1867 58.6563 17.24 58.2723 17.24C57.4403 17.2293 56.8056 16.9947 56.3683 16.536C55.9416 16.0667 55.7283 15.3787 55.7283 14.472V10.008H54.4003V8.536H55.7283V6.664L57.7763 6.424V8.536H59.7443L59.5363 10.008H57.7763V14.424C57.7763 14.84 57.8456 15.1387 57.9843 15.32C58.1336 15.5013 58.363 15.592 58.6723 15.592C58.9816 15.592 59.3176 15.4907 59.6803 15.288L60.4003 16.6Z"
            fill="#A238FF" />
    </g>
    <defs>
        <filter id="filter0_f_16_2" x="0.367676" y="0.703999" width="65.0327" height="21.536"
            filterUnits="userSpaceOnUse" color-interpolation-filters="sRGB">
            <feFlood flood-opacity="0" result="BackgroundImageFix" />
            <feBlend mode="normal" in="SourceGraphic" in2="BackgroundImageFix" result="shape" />
            <feGaussianBlur stdDeviation="2.5" result="effect1_foregroundBlur_16_2" />
        </filter>
    </defs>
</svg>