<svg width="52" height="23" viewBox="0 0 52 23" fill="none" xmlns="http://www.w3.org/2000/svg">
    <g filter="url(#filter0_f_9_23)">
        <path
            d="M11.6096 17V12.056H7.67363V17H5.56163V5.944H7.67363V10.376H11.6096V5.944H13.7376V17H11.6096ZM19.7036 8.296C20.9516 8.296 21.9223 8.696 22.6156 9.496C23.3196 10.2853 23.6716 11.3733 23.6716 12.76C23.6716 13.6453 23.5116 14.4293 23.1916 15.112C22.8716 15.784 22.413 16.3067 21.8156 16.68C21.2183 17.0533 20.509 17.24 19.6876 17.24C18.4396 17.24 17.4636 16.8453 16.7596 16.056C16.0556 15.256 15.7036 14.1573 15.7036 12.76C15.7036 11.8747 15.8636 11.096 16.1836 10.424C16.5036 9.752 16.9623 9.22933 17.5596 8.856C18.1676 8.48267 18.8823 8.296 19.7036 8.296ZM19.7036 9.848C18.477 9.848 17.8636 10.8187 17.8636 12.76C17.8636 13.7627 18.013 14.504 18.3116 14.984C18.621 15.4533 19.0796 15.688 19.6876 15.688C20.2956 15.688 20.749 15.448 21.0476 14.968C21.357 14.488 21.5116 13.752 21.5116 12.76C21.5116 11.768 21.357 11.0373 21.0476 10.568C20.749 10.088 20.301 9.848 19.7036 9.848ZM34.5674 8.296C35.25 8.296 35.794 8.53067 36.1994 9C36.6047 9.45867 36.8074 10.0827 36.8074 10.872V17H34.7594V11.192C34.7594 10.2853 34.45 9.832 33.8314 9.832C33.5007 9.832 33.2127 9.93867 32.9674 10.152C32.7327 10.3547 32.4874 10.6747 32.2314 11.112V17H30.1834V11.192C30.1834 10.2853 29.874 9.832 29.2554 9.832C28.914 9.832 28.6207 9.93867 28.3754 10.152C28.1407 10.3547 27.8954 10.6747 27.6394 11.112V17H25.5914V8.536H27.3674L27.5274 9.64C28.1674 8.744 28.9834 8.296 29.9754 8.296C30.466 8.296 30.8874 8.424 31.2394 8.68C31.602 8.92533 31.8634 9.272 32.0234 9.72C32.3647 9.26133 32.738 8.90933 33.1434 8.664C33.5594 8.41867 34.034 8.296 34.5674 8.296ZM46.1291 12.568C46.1291 12.6747 46.1131 12.952 46.0811 13.4H40.7691C40.8331 14.2213 41.0465 14.808 41.4091 15.16C41.7718 15.512 42.2518 15.688 42.8491 15.688C43.2225 15.688 43.5745 15.6293 43.9051 15.512C44.2358 15.384 44.5878 15.192 44.9611 14.936L45.8091 16.104C44.8705 16.8613 43.8251 17.24 42.6731 17.24C41.3825 17.24 40.3851 16.8453 39.6811 16.056C38.9878 15.2667 38.6411 14.1893 38.6411 12.824C38.6411 11.96 38.7905 11.1867 39.0891 10.504C39.3878 9.81067 39.8198 9.272 40.3851 8.888C40.9505 8.49333 41.6225 8.296 42.4011 8.296C43.5851 8.296 44.5025 8.67467 45.1531 9.432C45.8038 10.1787 46.1291 11.224 46.1291 12.568ZM44.0971 11.976C44.0971 10.4933 43.5478 9.752 42.4491 9.752C41.9478 9.752 41.5531 9.93867 41.2651 10.312C40.9878 10.6747 40.8225 11.2613 40.7691 12.072H44.0971V11.976Z"
            fill="#A238FF" />
    </g>
    <defs>
        <filter id="filter0_f_9_23" x="0.561646" y="0.944" width="50.5675" height="21.296" filterUnits="userSpaceOnUse"
            color-interpolation-filters="sRGB">
            <feFlood flood-opacity="0" result="BackgroundImageFix" />
            <feBlend mode="normal" in="SourceGraphic" in2="BackgroundImageFix" result="shape" />
            <feGaussianBlur stdDeviation="2.5" result="effect1_foregroundBlur_9_23" />
        </filter>
    </defs>
</svg>