<svg width="23" height="22" viewBox="0 0 23 22" fill="none" xmlns="http://www.w3.org/2000/svg">
<path d="M15.3333 7.33331C16.8582 7.33331 18.3208 7.91278 19.3991 8.94423C20.4775 9.97568 21.0833 11.3746 21.0833 12.8333V19.25H17.2499V12.8333C17.2499 12.3471 17.048 11.8808 16.6885 11.537C16.3291 11.1931 15.8416 11 15.3333 11C14.8249 11 14.3374 11.1931 13.978 11.537C13.6185 11.8808 13.4166 12.3471 13.4166 12.8333V19.25H9.58325V12.8333C9.58325 11.3746 10.1891 9.97568 11.2674 8.94423C12.3457 7.91278 13.8083 7.33331 15.3333 7.33331Z" stroke="#A238FF" stroke-width="2" stroke-linecap="round" stroke-linejoin="round"/>
<path d="M5.75008 8.25H1.91675V19.25H5.75008V8.25Z" stroke="#A238FF" stroke-width="2" stroke-linecap="round" stroke-linejoin="round"/>
<path d="M3.83341 5.49998C4.89196 5.49998 5.75008 4.67917 5.75008 3.66665C5.75008 2.65412 4.89196 1.83331 3.83341 1.83331C2.77487 1.83331 1.91675 2.65412 1.91675 3.66665C1.91675 4.67917 2.77487 5.49998 3.83341 5.49998Z" stroke="#A238FF" stroke-width="2" stroke-linecap="round" stroke-linejoin="round"/>
</svg>
