<svg width="61" height="27" viewBox="0 0 61 27" fill="none" xmlns="http://www.w3.org/2000/svg">
    <g filter="url(#filter0_f_12_57)">
        <path
            d="M8.45063 6.944C9.86929 6.944 10.968 7.23733 11.7466 7.824C12.536 8.41067 12.9306 9.29067 12.9306 10.464C12.9306 11.6907 12.536 12.6133 11.7466 13.232C10.9573 13.84 9.90663 14.144 8.59462 14.144H7.29863V18H5.18663V6.944H8.45063ZM8.43463 12.56C9.19196 12.56 9.76263 12.4053 10.1466 12.096C10.5306 11.776 10.7226 11.232 10.7226 10.464C10.7226 9.152 9.95996 8.496 8.43463 8.496H7.29863V12.56H8.43463ZM18.4393 9.312C18.7486 9.312 19.0313 9.34933 19.2873 9.424L18.9353 11.408C18.6793 11.344 18.4286 11.312 18.1833 11.312C17.6819 11.312 17.2873 11.4933 16.9993 11.856C16.7113 12.208 16.4819 12.752 16.3113 13.488V18H14.2633V9.536H16.0393L16.2313 11.2C16.4339 10.592 16.7273 10.128 17.1113 9.808C17.4953 9.47733 17.9379 9.312 18.4393 9.312ZM23.5318 9.296C24.7798 9.296 25.7504 9.696 26.4438 10.496C27.1478 11.2853 27.4998 12.3733 27.4998 13.76C27.4998 14.6453 27.3398 15.4293 27.0198 16.112C26.6998 16.784 26.2411 17.3067 25.6438 17.68C25.0464 18.0533 24.3371 18.24 23.5158 18.24C22.2678 18.24 21.2918 17.8453 20.5878 17.056C19.8838 16.256 19.5318 15.1573 19.5318 13.76C19.5318 12.8747 19.6918 12.096 20.0118 11.424C20.3318 10.752 20.7904 10.2293 21.3878 9.856C21.9958 9.48267 22.7104 9.296 23.5318 9.296ZM23.5318 10.848C22.3051 10.848 21.6918 11.8187 21.6918 13.76C21.6918 14.7627 21.8411 15.504 22.1398 15.984C22.4491 16.4533 22.9078 16.688 23.5158 16.688C24.1238 16.688 24.5771 16.448 24.8758 15.968C25.1851 15.488 25.3398 14.752 25.3398 13.76C25.3398 12.768 25.1851 12.0373 24.8758 11.568C24.5771 11.088 24.1291 10.848 23.5318 10.848ZM31.4515 17.248C31.4515 18.08 31.3288 18.7573 31.0835 19.28C30.8488 19.8133 30.5128 20.24 30.0755 20.56C29.6382 20.88 29.0675 21.184 28.3635 21.472L27.7075 19.984C28.1235 19.792 28.4488 19.6 28.6835 19.408C28.9182 19.2267 29.0942 18.976 29.2115 18.656C29.3395 18.336 29.4035 17.9093 29.4035 17.376V9.536H31.4515V17.248ZM30.4115 5.248C30.7955 5.248 31.1048 5.37067 31.3395 5.616C31.5848 5.85067 31.7075 6.144 31.7075 6.496C31.7075 6.848 31.5848 7.14133 31.3395 7.376C31.1048 7.61067 30.7955 7.728 30.4115 7.728C30.0382 7.728 29.7288 7.61067 29.4835 7.376C29.2488 7.14133 29.1315 6.848 29.1315 6.496C29.1315 6.144 29.2488 5.85067 29.4835 5.616C29.7288 5.37067 30.0382 5.248 30.4115 5.248ZM40.8635 13.568C40.8635 13.6747 40.8475 13.952 40.8155 14.4H35.5035C35.5675 15.2213 35.7808 15.808 36.1435 16.16C36.5062 16.512 36.9862 16.688 37.5835 16.688C37.9568 16.688 38.3088 16.6293 38.6395 16.512C38.9702 16.384 39.3222 16.192 39.6955 15.936L40.5435 17.104C39.6048 17.8613 38.5595 18.24 37.4075 18.24C36.1168 18.24 35.1195 17.8453 34.4155 17.056C33.7222 16.2667 33.3755 15.1893 33.3755 13.824C33.3755 12.96 33.5248 12.1867 33.8235 11.504C34.1222 10.8107 34.5542 10.272 35.1195 9.888C35.6848 9.49333 36.3568 9.296 37.1355 9.296C38.3195 9.296 39.2368 9.67467 39.8875 10.432C40.5382 11.1787 40.8635 12.224 40.8635 13.568ZM38.8315 12.976C38.8315 11.4933 38.2822 10.752 37.1835 10.752C36.6822 10.752 36.2875 10.9387 35.9995 11.312C35.7222 11.6747 35.5568 12.2613 35.5035 13.072H38.8315V12.976ZM46.1088 9.296C46.6634 9.296 47.1594 9.376 47.5968 9.536C48.0448 9.696 48.4661 9.94667 48.8608 10.288L47.9488 11.52C47.6608 11.3067 47.3834 11.152 47.1168 11.056C46.8501 10.96 46.5568 10.912 46.2368 10.912C44.9674 10.912 44.3328 11.8773 44.3328 13.808C44.3328 14.7893 44.4981 15.4987 44.8288 15.936C45.1594 16.3627 45.6288 16.576 46.2368 16.576C46.5354 16.576 46.8074 16.528 47.0528 16.432C47.3088 16.336 47.6074 16.1813 47.9488 15.968L48.8608 17.264C48.0608 17.9147 47.1488 18.24 46.1248 18.24C45.3141 18.24 44.6101 18.064 44.0128 17.712C43.4154 17.3493 42.9568 16.8373 42.6368 16.176C42.3168 15.5147 42.1568 14.736 42.1568 13.84C42.1568 12.944 42.3168 12.1547 42.6368 11.472C42.9568 10.7787 43.4154 10.2453 44.0128 9.872C44.6101 9.488 45.3088 9.296 46.1088 9.296ZM55.1894 17.6C54.8907 17.8133 54.5547 17.9733 54.1814 18.08C53.8187 18.1867 53.4454 18.24 53.0614 18.24C52.2294 18.2293 51.5947 17.9947 51.1574 17.536C50.7307 17.0667 50.5174 16.3787 50.5174 15.472V11.008H49.1894V9.536H50.5174V7.664L52.5654 7.424V9.536H54.5334L54.3254 11.008H52.5654V15.424C52.5654 15.84 52.6347 16.1387 52.7734 16.32C52.9227 16.5013 53.152 16.592 53.4614 16.592C53.7707 16.592 54.1067 16.4907 54.4694 16.288L55.1894 17.6Z"
            fill="#A238FF" />
    </g>
    <defs>
        <filter id="filter0_f_12_57" x="0.186646" y="0.248001" width="60.0027" height="26.224"
            filterUnits="userSpaceOnUse" color-interpolation-filters="sRGB">
            <feFlood flood-opacity="0" result="BackgroundImageFix" />
            <feBlend mode="normal" in="SourceGraphic" in2="BackgroundImageFix" result="shape" />
            <feGaussianBlur stdDeviation="2.5" result="effect1_foregroundBlur_12_57" />
        </filter>
    </defs>
</svg>